<mxfile host="drawio-plugin" modified="2023-04-10T09:20:45.894Z" agent="5.0 (Macintosh; Intel Mac OS X 10_15_7) AppleWebKit/537.36 (KHTML, like Gecko) Chrome/97.0.4692.45 Safari/537.36" etag="jwBLHec6ZPdwLbtdIG9x" version="20.5.3" type="embed"><diagram id="b-JTFg7G2wPBGt9F7NPq" name="Страница 3"><mxGraphModel dx="1328" dy="346" grid="0" gridSize="10" guides="1" tooltips="1" connect="1" arrows="1" fold="1" page="0" pageScale="1" pageWidth="827" pageHeight="1169" math="0" shadow="0"><root><mxCell id="0"/><mxCell id="1" parent="0"/><mxCell id="10" style="edgeStyle=orthogonalEdgeStyle;rounded=0;orthogonalLoop=1;jettySize=auto;html=1;exitX=0.25;exitY=0;exitDx=0;exitDy=0;entryX=1;entryY=0.5;entryDx=0;entryDy=0;strokeWidth=1;endArrow=none;endFill=0;" parent="1" source="dLbJjMNOY3qdDr_vr_wL-9" target="3" edge="1"><mxGeometry relative="1" as="geometry"><Array as="points"><mxPoint x="-20" y="280"/><mxPoint x="-100" y="280"/><mxPoint x="-100" y="199"/></Array></mxGeometry></mxCell><mxCell id="dLbJjMNOY3qdDr_vr_wL-9" value="Training" style="swimlane;fontStyle=1;align=center;verticalAlign=top;childLayout=stackLayout;horizontal=1;startSize=26;horizontalStack=0;resizeParent=1;resizeParentMax=0;resizeLast=0;collapsible=1;marginBottom=0;" parent="1" vertex="1"><mxGeometry x="-70" y="310" width="200" height="164" as="geometry"/></mxCell><mxCell id="dLbJjMNOY3qdDr_vr_wL-10" value="+ id" style="text;strokeColor=none;fillColor=none;align=left;verticalAlign=top;spacingLeft=4;spacingRight=4;overflow=hidden;rotatable=0;points=[[0,0.5],[1,0.5]];portConstraint=eastwest;" parent="dLbJjMNOY3qdDr_vr_wL-9" vertex="1"><mxGeometry y="26" width="200" height="26" as="geometry"/></mxCell><mxCell id="dLbJjMNOY3qdDr_vr_wL-33" value="+ title" style="text;strokeColor=none;fillColor=none;align=left;verticalAlign=top;spacingLeft=4;spacingRight=4;overflow=hidden;rotatable=0;points=[[0,0.5],[1,0.5]];portConstraint=eastwest;" parent="dLbJjMNOY3qdDr_vr_wL-9" vertex="1"><mxGeometry y="52" width="200" height="26" as="geometry"/></mxCell><mxCell id="dLbJjMNOY3qdDr_vr_wL-34" value="+ description" style="text;strokeColor=none;fillColor=none;align=left;verticalAlign=top;spacingLeft=4;spacingRight=4;overflow=hidden;rotatable=0;points=[[0,0.5],[1,0.5]];portConstraint=eastwest;" parent="dLbJjMNOY3qdDr_vr_wL-9" vertex="1"><mxGeometry y="78" width="200" height="26" as="geometry"/></mxCell><mxCell id="dLbJjMNOY3qdDr_vr_wL-35" value="+ trainer" style="text;strokeColor=none;fillColor=none;align=left;verticalAlign=top;spacingLeft=4;spacingRight=4;overflow=hidden;rotatable=0;points=[[0,0.5],[1,0.5]];portConstraint=eastwest;" parent="dLbJjMNOY3qdDr_vr_wL-9" vertex="1"><mxGeometry y="104" width="200" height="26" as="geometry"/></mxCell><mxCell id="dLbJjMNOY3qdDr_vr_wL-36" value="+ countPlace" style="text;strokeColor=none;fillColor=none;align=left;verticalAlign=top;spacingLeft=4;spacingRight=4;overflow=hidden;rotatable=0;points=[[0,0.5],[1,0.5]];portConstraint=eastwest;" parent="dLbJjMNOY3qdDr_vr_wL-9" vertex="1"><mxGeometry y="130" width="200" height="26" as="geometry"/></mxCell><mxCell id="dLbJjMNOY3qdDr_vr_wL-11" value="" style="line;strokeWidth=1;fillColor=none;align=left;verticalAlign=middle;spacingTop=-1;spacingLeft=3;spacingRight=3;rotatable=0;labelPosition=right;points=[];portConstraint=eastwest;" parent="dLbJjMNOY3qdDr_vr_wL-9" vertex="1"><mxGeometry y="156" width="200" height="8" as="geometry"/></mxCell><mxCell id="dLbJjMNOY3qdDr_vr_wL-13" value="Answer" style="swimlane;fontStyle=0;align=center;verticalAlign=top;childLayout=stackLayout;horizontal=1;startSize=26;horizontalStack=0;resizeParent=1;resizeParentMax=0;resizeLast=0;collapsible=1;marginBottom=0;" parent="1" vertex="1"><mxGeometry x="210" y="300" width="190" height="138" as="geometry"/></mxCell><mxCell id="dLbJjMNOY3qdDr_vr_wL-14" value="+ id" style="text;strokeColor=none;fillColor=none;align=left;verticalAlign=top;spacingLeft=4;spacingRight=4;overflow=hidden;rotatable=0;points=[[0,0.5],[1,0.5]];portConstraint=eastwest;" parent="dLbJjMNOY3qdDr_vr_wL-13" vertex="1"><mxGeometry y="26" width="190" height="26" as="geometry"/></mxCell><mxCell id="dLbJjMNOY3qdDr_vr_wL-29" value="+ title" style="text;strokeColor=none;fillColor=none;align=left;verticalAlign=top;spacingLeft=4;spacingRight=4;overflow=hidden;rotatable=0;points=[[0,0.5],[1,0.5]];portConstraint=eastwest;" parent="dLbJjMNOY3qdDr_vr_wL-13" vertex="1"><mxGeometry y="52" width="190" height="26" as="geometry"/></mxCell><mxCell id="dLbJjMNOY3qdDr_vr_wL-30" value="+ correct" style="text;strokeColor=none;fillColor=none;align=left;verticalAlign=top;spacingLeft=4;spacingRight=4;overflow=hidden;rotatable=0;points=[[0,0.5],[1,0.5]];portConstraint=eastwest;" parent="dLbJjMNOY3qdDr_vr_wL-13" vertex="1"><mxGeometry y="78" width="190" height="26" as="geometry"/></mxCell><mxCell id="dLbJjMNOY3qdDr_vr_wL-15" value="" style="line;strokeWidth=1;fillColor=none;align=left;verticalAlign=middle;spacingTop=-1;spacingLeft=3;spacingRight=3;rotatable=0;labelPosition=right;points=[];portConstraint=eastwest;" parent="dLbJjMNOY3qdDr_vr_wL-13" vertex="1"><mxGeometry y="104" width="190" height="8" as="geometry"/></mxCell><mxCell id="dLbJjMNOY3qdDr_vr_wL-16" value="+  question_id" style="text;strokeColor=none;fillColor=none;align=left;verticalAlign=top;spacingLeft=4;spacingRight=4;overflow=hidden;rotatable=0;points=[[0,0.5],[1,0.5]];portConstraint=eastwest;" parent="dLbJjMNOY3qdDr_vr_wL-13" vertex="1"><mxGeometry y="112" width="190" height="26" as="geometry"/></mxCell><mxCell id="dLbJjMNOY3qdDr_vr_wL-17" value="Question" style="swimlane;fontStyle=1;align=center;verticalAlign=top;childLayout=stackLayout;horizontal=1;startSize=26;horizontalStack=0;resizeParent=1;resizeParentMax=0;resizeLast=0;collapsible=1;marginBottom=0;" parent="1" vertex="1"><mxGeometry x="210" y="130" width="200" height="107" as="geometry"/></mxCell><mxCell id="dLbJjMNOY3qdDr_vr_wL-18" value="+ id" style="text;strokeColor=none;fillColor=none;align=left;verticalAlign=top;spacingLeft=4;spacingRight=4;overflow=hidden;rotatable=0;points=[[0,0.5],[1,0.5]];portConstraint=eastwest;" parent="dLbJjMNOY3qdDr_vr_wL-17" vertex="1"><mxGeometry y="26" width="200" height="26" as="geometry"/></mxCell><mxCell id="dLbJjMNOY3qdDr_vr_wL-32" value="+ question" style="text;strokeColor=none;fillColor=none;align=left;verticalAlign=top;spacingLeft=4;spacingRight=4;overflow=hidden;rotatable=0;points=[[0,0.5],[1,0.5]];portConstraint=eastwest;" parent="dLbJjMNOY3qdDr_vr_wL-17" vertex="1"><mxGeometry y="52" width="200" height="26" as="geometry"/></mxCell><mxCell id="dLbJjMNOY3qdDr_vr_wL-19" value="" style="line;strokeWidth=1;fillColor=none;align=left;verticalAlign=middle;spacingTop=-1;spacingLeft=3;spacingRight=3;rotatable=0;labelPosition=right;points=[];portConstraint=eastwest;" parent="dLbJjMNOY3qdDr_vr_wL-17" vertex="1"><mxGeometry y="78" width="200" height="3" as="geometry"/></mxCell><mxCell id="17" value="+ test_id" style="text;strokeColor=none;fillColor=none;align=left;verticalAlign=top;spacingLeft=4;spacingRight=4;overflow=hidden;rotatable=0;points=[[0,0.5],[1,0.5]];portConstraint=eastwest;" vertex="1" parent="dLbJjMNOY3qdDr_vr_wL-17"><mxGeometry y="81" width="200" height="26" as="geometry"/></mxCell><mxCell id="dLbJjMNOY3qdDr_vr_wL-21" value="Test" style="swimlane;fontStyle=1;align=center;verticalAlign=top;childLayout=stackLayout;horizontal=1;startSize=26;horizontalStack=0;resizeParent=1;resizeParentMax=0;resizeLast=0;collapsible=1;marginBottom=0;" parent="1" vertex="1"><mxGeometry x="-70" y="130" width="200" height="104" as="geometry"/></mxCell><mxCell id="t5kEjnN1whmofkZflR2o-26" value="+ id" style="text;strokeColor=none;fillColor=none;align=left;verticalAlign=top;spacingLeft=4;spacingRight=4;overflow=hidden;rotatable=0;points=[[0,0.5],[1,0.5]];portConstraint=eastwest;" parent="dLbJjMNOY3qdDr_vr_wL-21" vertex="1"><mxGeometry y="26" width="200" height="22" as="geometry"/></mxCell><mxCell id="dLbJjMNOY3qdDr_vr_wL-22" value="+ title" style="text;strokeColor=none;fillColor=none;align=left;verticalAlign=top;spacingLeft=4;spacingRight=4;overflow=hidden;rotatable=0;points=[[0,0.5],[1,0.5]];portConstraint=eastwest;" parent="dLbJjMNOY3qdDr_vr_wL-21" vertex="1"><mxGeometry y="48" width="200" height="22" as="geometry"/></mxCell><mxCell id="dLbJjMNOY3qdDr_vr_wL-23" value="" style="line;strokeWidth=1;fillColor=none;align=left;verticalAlign=middle;spacingTop=-1;spacingLeft=3;spacingRight=3;rotatable=0;labelPosition=right;points=[];portConstraint=eastwest;" parent="dLbJjMNOY3qdDr_vr_wL-21" vertex="1"><mxGeometry y="70" width="200" height="12" as="geometry"/></mxCell><mxCell id="16" value="+ trainig_id" style="text;strokeColor=none;fillColor=none;align=left;verticalAlign=top;spacingLeft=4;spacingRight=4;overflow=hidden;rotatable=0;points=[[0,0.5],[1,0.5]];portConstraint=eastwest;" vertex="1" parent="dLbJjMNOY3qdDr_vr_wL-21"><mxGeometry y="82" width="200" height="22" as="geometry"/></mxCell><mxCell id="dLbJjMNOY3qdDr_vr_wL-25" value="User" style="swimlane;fontStyle=1;align=center;verticalAlign=top;childLayout=stackLayout;horizontal=1;startSize=26;horizontalStack=0;resizeParent=1;resizeParentMax=0;resizeLast=0;collapsible=1;marginBottom=0;" parent="1" vertex="1"><mxGeometry x="-480" y="310" width="160" height="268" as="geometry"/></mxCell><mxCell id="dLbJjMNOY3qdDr_vr_wL-26" value="+ id" style="text;strokeColor=none;fillColor=none;align=left;verticalAlign=top;spacingLeft=4;spacingRight=4;overflow=hidden;rotatable=0;points=[[0,0.5],[1,0.5]];portConstraint=eastwest;" parent="dLbJjMNOY3qdDr_vr_wL-25" vertex="1"><mxGeometry y="26" width="160" height="26" as="geometry"/></mxCell><mxCell id="dLbJjMNOY3qdDr_vr_wL-37" value="+ fullName" style="text;strokeColor=none;fillColor=none;align=left;verticalAlign=top;spacingLeft=4;spacingRight=4;overflow=hidden;rotatable=0;points=[[0,0.5],[1,0.5]];portConstraint=eastwest;" parent="dLbJjMNOY3qdDr_vr_wL-25" vertex="1"><mxGeometry y="52" width="160" height="26" as="geometry"/></mxCell><mxCell id="dLbJjMNOY3qdDr_vr_wL-38" value="+ position" style="text;strokeColor=none;fillColor=none;align=left;verticalAlign=top;spacingLeft=4;spacingRight=4;overflow=hidden;rotatable=0;points=[[0,0.5],[1,0.5]];portConstraint=eastwest;" parent="dLbJjMNOY3qdDr_vr_wL-25" vertex="1"><mxGeometry y="78" width="160" height="26" as="geometry"/></mxCell><mxCell id="dLbJjMNOY3qdDr_vr_wL-40" value="+ organization" style="text;strokeColor=none;fillColor=none;align=left;verticalAlign=top;spacingLeft=4;spacingRight=4;overflow=hidden;rotatable=0;points=[[0,0.5],[1,0.5]];portConstraint=eastwest;" parent="dLbJjMNOY3qdDr_vr_wL-25" vertex="1"><mxGeometry y="104" width="160" height="26" as="geometry"/></mxCell><mxCell id="dLbJjMNOY3qdDr_vr_wL-41" value="+ phone" style="text;strokeColor=none;fillColor=none;align=left;verticalAlign=top;spacingLeft=4;spacingRight=4;overflow=hidden;rotatable=0;points=[[0,0.5],[1,0.5]];portConstraint=eastwest;" parent="dLbJjMNOY3qdDr_vr_wL-25" vertex="1"><mxGeometry y="130" width="160" height="26" as="geometry"/></mxCell><mxCell id="dLbJjMNOY3qdDr_vr_wL-39" value="+ email" style="text;strokeColor=none;fillColor=none;align=left;verticalAlign=top;spacingLeft=4;spacingRight=4;overflow=hidden;rotatable=0;points=[[0,0.5],[1,0.5]];portConstraint=eastwest;" parent="dLbJjMNOY3qdDr_vr_wL-25" vertex="1"><mxGeometry y="156" width="160" height="26" as="geometry"/></mxCell><mxCell id="dLbJjMNOY3qdDr_vr_wL-42" value="+ login" style="text;strokeColor=none;fillColor=none;align=left;verticalAlign=top;spacingLeft=4;spacingRight=4;overflow=hidden;rotatable=0;points=[[0,0.5],[1,0.5]];portConstraint=eastwest;" parent="dLbJjMNOY3qdDr_vr_wL-25" vertex="1"><mxGeometry y="182" width="160" height="26" as="geometry"/></mxCell><mxCell id="18" value="+ password" style="text;strokeColor=none;fillColor=none;align=left;verticalAlign=top;spacingLeft=4;spacingRight=4;overflow=hidden;rotatable=0;points=[[0,0.5],[1,0.5]];portConstraint=eastwest;" vertex="1" parent="dLbJjMNOY3qdDr_vr_wL-25"><mxGeometry y="208" width="160" height="26" as="geometry"/></mxCell><mxCell id="dLbJjMNOY3qdDr_vr_wL-27" value="" style="line;strokeWidth=1;fillColor=none;align=left;verticalAlign=middle;spacingTop=-1;spacingLeft=3;spacingRight=3;rotatable=0;labelPosition=right;points=[];portConstraint=eastwest;" parent="dLbJjMNOY3qdDr_vr_wL-25" vertex="1"><mxGeometry y="234" width="160" height="8" as="geometry"/></mxCell><mxCell id="dLbJjMNOY3qdDr_vr_wL-28" value="+  role_id " style="text;strokeColor=none;fillColor=none;align=left;verticalAlign=top;spacingLeft=4;spacingRight=4;overflow=hidden;rotatable=0;points=[[0,0.5],[1,0.5]];portConstraint=eastwest;fontColor=#000000;" parent="dLbJjMNOY3qdDr_vr_wL-25" vertex="1"><mxGeometry y="242" width="160" height="26" as="geometry"/></mxCell><mxCell id="t5kEjnN1whmofkZflR2o-10" value="CompletedTraining" style="swimlane;fontStyle=1;align=center;verticalAlign=top;childLayout=stackLayout;horizontal=1;startSize=26;horizontalStack=0;resizeParent=1;resizeParentMax=0;resizeLast=0;collapsible=1;marginBottom=0;" parent="1" vertex="1"><mxGeometry x="1170" y="140" width="200" height="112" as="geometry"/></mxCell><mxCell id="t5kEjnN1whmofkZflR2o-11" value="+ id" style="text;strokeColor=none;fillColor=none;align=left;verticalAlign=top;spacingLeft=4;spacingRight=4;overflow=hidden;rotatable=0;points=[[0,0.5],[1,0.5]];portConstraint=eastwest;" parent="t5kEjnN1whmofkZflR2o-10" vertex="1"><mxGeometry y="26" width="200" height="26" as="geometry"/></mxCell><mxCell id="t5kEjnN1whmofkZflR2o-12" value="+ training_id" style="text;strokeColor=none;fillColor=none;align=left;verticalAlign=top;spacingLeft=4;spacingRight=4;overflow=hidden;rotatable=0;points=[[0,0.5],[1,0.5]];portConstraint=eastwest;" parent="t5kEjnN1whmofkZflR2o-10" vertex="1"><mxGeometry y="52" width="200" height="26" as="geometry"/></mxCell><mxCell id="t5kEjnN1whmofkZflR2o-16" value="" style="line;strokeWidth=1;fillColor=none;align=left;verticalAlign=middle;spacingTop=-1;spacingLeft=3;spacingRight=3;rotatable=0;labelPosition=right;points=[];portConstraint=eastwest;" parent="t5kEjnN1whmofkZflR2o-10" vertex="1"><mxGeometry y="78" width="200" height="8" as="geometry"/></mxCell><mxCell id="t5kEjnN1whmofkZflR2o-17" value="+ " style="text;strokeColor=none;fillColor=none;align=left;verticalAlign=top;spacingLeft=4;spacingRight=4;overflow=hidden;rotatable=0;points=[[0,0.5],[1,0.5]];portConstraint=eastwest;" parent="t5kEjnN1whmofkZflR2o-10" vertex="1"><mxGeometry y="86" width="200" height="26" as="geometry"/></mxCell><mxCell id="t5kEjnN1whmofkZflR2o-22" value="" style="endArrow=none;html=1;rounded=0;fontColor=#FF3333;entryX=0.5;entryY=0;entryDx=0;entryDy=0;" parent="1" target="dLbJjMNOY3qdDr_vr_wL-13" edge="1"><mxGeometry relative="1" as="geometry"><mxPoint x="305" y="240" as="sourcePoint"/><mxPoint x="220" y="350" as="targetPoint"/></mxGeometry></mxCell><mxCell id="t5kEjnN1whmofkZflR2o-23" value="N" style="resizable=0;html=1;align=right;verticalAlign=bottom;fontColor=#FF3333;" parent="t5kEjnN1whmofkZflR2o-22" connectable="0" vertex="1"><mxGeometry x="1" relative="1" as="geometry"/></mxCell><mxCell id="t5kEjnN1whmofkZflR2o-24" value="" style="endArrow=none;html=1;rounded=0;fontColor=#FF3333;exitX=1;exitY=0.5;exitDx=0;exitDy=0;" parent="1" source="dLbJjMNOY3qdDr_vr_wL-22" edge="1"><mxGeometry relative="1" as="geometry"><mxPoint x="160" y="160" as="sourcePoint"/><mxPoint x="210" y="189" as="targetPoint"/></mxGeometry></mxCell><mxCell id="t5kEjnN1whmofkZflR2o-25" value="N" style="resizable=0;html=1;align=right;verticalAlign=bottom;fontColor=#FF3333;" parent="t5kEjnN1whmofkZflR2o-24" connectable="0" vertex="1"><mxGeometry x="1" relative="1" as="geometry"/></mxCell><mxCell id="t5kEjnN1whmofkZflR2o-27" value="Role" style="swimlane;fontStyle=0;childLayout=stackLayout;horizontal=1;startSize=26;fillColor=none;horizontalStack=0;resizeParent=1;resizeParentMax=0;resizeLast=0;collapsible=1;marginBottom=0;fontColor=#000000;" parent="1" vertex="1"><mxGeometry x="-479.5" y="628" width="140" height="78" as="geometry"/></mxCell><mxCell id="t5kEjnN1whmofkZflR2o-28" value="+ id" style="text;strokeColor=none;fillColor=none;align=left;verticalAlign=top;spacingLeft=4;spacingRight=4;overflow=hidden;rotatable=0;points=[[0,0.5],[1,0.5]];portConstraint=eastwest;fontColor=#000000;" parent="t5kEjnN1whmofkZflR2o-27" vertex="1"><mxGeometry y="26" width="140" height="26" as="geometry"/></mxCell><mxCell id="t5kEjnN1whmofkZflR2o-29" value="+ role" style="text;strokeColor=none;fillColor=none;align=left;verticalAlign=top;spacingLeft=4;spacingRight=4;overflow=hidden;rotatable=0;points=[[0,0.5],[1,0.5]];portConstraint=eastwest;fontColor=#000000;" parent="t5kEjnN1whmofkZflR2o-27" vertex="1"><mxGeometry y="52" width="140" height="26" as="geometry"/></mxCell><mxCell id="t5kEjnN1whmofkZflR2o-31" value="" style="endArrow=none;html=1;rounded=0;fontColor=#FF3333;entryX=0.5;entryY=0;entryDx=0;entryDy=0;" parent="1" target="dLbJjMNOY3qdDr_vr_wL-9" edge="1"><mxGeometry relative="1" as="geometry"><mxPoint x="29.470000000000027" y="238" as="sourcePoint"/><mxPoint x="29.470000000000027" y="298" as="targetPoint"/></mxGeometry></mxCell><mxCell id="t5kEjnN1whmofkZflR2o-32" value="1" style="resizable=0;html=1;align=right;verticalAlign=bottom;fontColor=#FF3333;" parent="t5kEjnN1whmofkZflR2o-31" connectable="0" vertex="1"><mxGeometry x="1" relative="1" as="geometry"/></mxCell><mxCell id="t5kEjnN1whmofkZflR2o-33" value="" style="endArrow=none;html=1;rounded=0;fontColor=#FF3333;" parent="1" edge="1"><mxGeometry relative="1" as="geometry"><mxPoint x="-410.03" y="578" as="sourcePoint"/><mxPoint x="-410.5" y="628" as="targetPoint"/></mxGeometry></mxCell><mxCell id="t5kEjnN1whmofkZflR2o-34" value="1" style="resizable=0;html=1;align=right;verticalAlign=bottom;fontColor=#FF3333;" parent="t5kEjnN1whmofkZflR2o-33" connectable="0" vertex="1"><mxGeometry x="1" relative="1" as="geometry"/></mxCell><mxCell id="t5kEjnN1whmofkZflR2o-35" value="1" style="resizable=0;html=1;align=right;verticalAlign=bottom;fontColor=#FF3333;" parent="1" connectable="0" vertex="1"><mxGeometry x="-409.49997923677597" y="597.9977911463797" as="geometry"/></mxCell><mxCell id="t5kEjnN1whmofkZflR2o-36" value="1" style="resizable=0;html=1;align=right;verticalAlign=bottom;fontColor=#FF3333;" parent="1" connectable="0" vertex="1"><mxGeometry x="29.999985641305102" y="251.99804938482714" as="geometry"/></mxCell><mxCell id="t5kEjnN1whmofkZflR2o-37" value="Active_Training" style="swimlane;fontStyle=0;childLayout=stackLayout;horizontal=1;startSize=26;fillColor=none;horizontalStack=0;resizeParent=1;resizeParentMax=0;resizeLast=0;collapsible=1;marginBottom=0;fontColor=#000000;" parent="1" vertex="1"><mxGeometry x="-260" y="360" width="140" height="78" as="geometry"/></mxCell><mxCell id="t5kEjnN1whmofkZflR2o-38" value="+ user_id" style="text;strokeColor=none;fillColor=none;align=left;verticalAlign=top;spacingLeft=4;spacingRight=4;overflow=hidden;rotatable=0;points=[[0,0.5],[1,0.5]];portConstraint=eastwest;fontColor=#000000;" parent="t5kEjnN1whmofkZflR2o-37" vertex="1"><mxGeometry y="26" width="140" height="26" as="geometry"/></mxCell><mxCell id="t5kEjnN1whmofkZflR2o-39" value="+ trainig_id" style="text;strokeColor=none;fillColor=none;align=left;verticalAlign=top;spacingLeft=4;spacingRight=4;overflow=hidden;rotatable=0;points=[[0,0.5],[1,0.5]];portConstraint=eastwest;fontColor=#000000;" parent="t5kEjnN1whmofkZflR2o-37" vertex="1"><mxGeometry y="52" width="140" height="26" as="geometry"/></mxCell><mxCell id="t5kEjnN1whmofkZflR2o-41" value="" style="endArrow=none;html=1;rounded=0;fontColor=#FF3333;entryX=0;entryY=0.5;entryDx=0;entryDy=0;" parent="1" target="t5kEjnN1whmofkZflR2o-38" edge="1"><mxGeometry relative="1" as="geometry"><mxPoint x="-320" y="399" as="sourcePoint"/><mxPoint x="-290" y="456" as="targetPoint"/></mxGeometry></mxCell><mxCell id="t5kEjnN1whmofkZflR2o-42" value="1" style="resizable=0;html=1;align=right;verticalAlign=bottom;fontColor=#FF3333;" parent="t5kEjnN1whmofkZflR2o-41" connectable="0" vertex="1"><mxGeometry x="1" relative="1" as="geometry"><mxPoint x="-50" as="offset"/></mxGeometry></mxCell><mxCell id="t5kEjnN1whmofkZflR2o-43" value="" style="endArrow=none;html=1;rounded=0;fontColor=#FF3333;entryX=0;entryY=0.5;entryDx=0;entryDy=0;" parent="1" target="dLbJjMNOY3qdDr_vr_wL-34" edge="1"><mxGeometry relative="1" as="geometry"><mxPoint x="-120" y="400" as="sourcePoint"/><mxPoint x="-100" y="520" as="targetPoint"/></mxGeometry></mxCell><mxCell id="t5kEjnN1whmofkZflR2o-44" value="1" style="resizable=0;html=1;align=right;verticalAlign=bottom;fontColor=#FF3333;" parent="t5kEjnN1whmofkZflR2o-43" connectable="0" vertex="1"><mxGeometry x="1" relative="1" as="geometry"/></mxCell><mxCell id="t5kEjnN1whmofkZflR2o-45" value="N" style="resizable=0;html=1;align=right;verticalAlign=bottom;fontColor=#FF3333;" parent="1" connectable="0" vertex="1"><mxGeometry x="-260" y="398.9999999999999" as="geometry"/></mxCell><mxCell id="t5kEjnN1whmofkZflR2o-46" value="N" style="resizable=0;html=1;align=right;verticalAlign=bottom;fontColor=#FF3333;" parent="1" connectable="0" vertex="1"><mxGeometry x="-110" y="398.9999999999999" as="geometry"/></mxCell><mxCell id="2" value="Completed_Traininig" style="swimlane;fontStyle=0;childLayout=stackLayout;horizontal=1;startSize=26;fillColor=none;horizontalStack=0;resizeParent=1;resizeParentMax=0;resizeLast=0;collapsible=1;marginBottom=0;" parent="1" vertex="1"><mxGeometry x="-470" y="160" width="140" height="78" as="geometry"/></mxCell><mxCell id="3" value="+ user_id" style="text;strokeColor=none;fillColor=none;align=left;verticalAlign=top;spacingLeft=4;spacingRight=4;overflow=hidden;rotatable=0;points=[[0,0.5],[1,0.5]];portConstraint=eastwest;" parent="2" vertex="1"><mxGeometry y="26" width="140" height="26" as="geometry"/></mxCell><mxCell id="4" value="+ training_id" style="text;strokeColor=none;fillColor=none;align=left;verticalAlign=top;spacingLeft=4;spacingRight=4;overflow=hidden;rotatable=0;points=[[0,0.5],[1,0.5]];portConstraint=eastwest;" parent="2" vertex="1"><mxGeometry y="52" width="140" height="26" as="geometry"/></mxCell><mxCell id="8" value="" style="endArrow=none;html=1;rounded=0;fontColor=#FF3333;exitX=0.5;exitY=0;exitDx=0;exitDy=0;entryX=0.503;entryY=1.085;entryDx=0;entryDy=0;entryPerimeter=0;" parent="1" source="dLbJjMNOY3qdDr_vr_wL-25" target="4" edge="1"><mxGeometry relative="1" as="geometry"><mxPoint x="-400.09" y="250" as="sourcePoint"/><mxPoint x="-400.56" y="300" as="targetPoint"/></mxGeometry></mxCell><mxCell id="9" value="1" style="resizable=0;html=1;align=right;verticalAlign=bottom;fontColor=#FF3333;" parent="8" connectable="0" vertex="1"><mxGeometry x="1" relative="1" as="geometry"><mxPoint y="70" as="offset"/></mxGeometry></mxCell><mxCell id="11" value="1" style="resizable=0;html=1;align=right;verticalAlign=bottom;fontColor=#FF3333;" parent="1" connectable="0" vertex="1"><mxGeometry x="-29.998743836868982" y="310.00126755972633" as="geometry"/></mxCell><mxCell id="12" value="N" style="resizable=0;html=1;align=right;verticalAlign=bottom;fontColor=#FF3333;" parent="1" connectable="0" vertex="1"><mxGeometry x="-250" y="408.9999999999999" as="geometry"><mxPoint x="-156" y="-151" as="offset"/></mxGeometry></mxCell><mxCell id="13" value="N" style="resizable=0;html=1;align=right;verticalAlign=bottom;fontColor=#FF3333;" parent="1" connectable="0" vertex="1"><mxGeometry x="-160" y="349.9999999999999" as="geometry"><mxPoint x="-156" y="-151" as="offset"/></mxGeometry></mxCell></root></mxGraphModel></diagram></mxfile>